# xmcd CD database file
# Copyright (C) 1993-1998 Ti Kan
#
# Track frame offsets:
#  182
#  14532
#  23795
#  35085
#  45740
#  57187
#  68587
#  81387
#  95665
#  106487
#  117812
#  125970
#  136582
#
# Disc length: 1962 seconds
#
# Revision: 1
# Processed by: cddbd v1.4b41PL1 Copyright (c) Steve Scherf et al.
# Submitted via: CDWizzard Release:4.35
#
DISCID=b307a80d
DTITLE=Sonny Til and The Orioles - Sonny Til and The Orioles, Greatest Hits
DYEAR=1900
DGENRE=
TTITLE0=Crying In The Chapel
TTITLE1=It's Too Soon To Know
TTITLE2=Chapel In The Moonlight
TTITLE3=Secret Love
TTITLE4=I Miss You So
TTITLE5=Back To The Chapel Again
TTITLE6=Lonely Christmas
TTITLE7=Don't Tell Her What Happened To Me
TTITLE8=Don't Mess Around
TTITLE9=What Are You Doing New Years Eve
TTITLE10=Wright And Tell Me Why
TTITLE11=Wobble
TTITLE12=Hey Little Woman
EXTD=
EXTT0=
EXTT1=
EXTT2=
EXTT3=
EXTT4=
EXTT5=
EXTT6=
EXTT7=
EXTT8=
EXTT9=
EXTT10=
EXTT11=
EXTT12=
PLAYORDER=
